<?xml version="1.0" encoding="UTF-8"?>
<svg width="19px" height="19px" viewBox="0 0 19 19" version="1.1" xmlns="http://www.w3.org/2000/svg" xmlns:xlink="http://www.w3.org/1999/xlink">
    <!-- Generator: Sketch 45.1 (43504) - http://www.bohemiancoding.com/sketch -->
    <title>Facebook</title>
    <desc>Created with Sketch.</desc>
    <defs></defs>
    <g id="Page-1-Copy" stroke="none" stroke-width="1" fill="none" fill-rule="evenodd">
        <g id="Desktop-HD-Copy-4" transform="translate(-1288.000000, -848.000000)" fill-rule="nonzero" fill="#F98787">
            <g id="Group-8" transform="translate(1011.000000, 840.000000)">
                <g id="Group-2" transform="translate(230.000000, 8.000000)">
                    <g id="facebook-black" transform="translate(47.000000, 0.000000)">
                        <path d="M10.1485155,19 L1.04865433,19 C0.469328896,19 0,18.5303802 0,17.9512804 L0,1.04864602 C0,0.469398958 0.469402521,0 1.04865433,0 L17.9514197,0 C18.5305239,0 19,0.469398958 19,1.04864602 L19,17.9512804 C19,18.5304538 18.5304502,19 17.9514197,19 L13.1097249,19 L13.1097249,11.642153 L15.5794146,11.642153 L15.9492155,8.77466946 L13.1097249,8.77466946 L13.1097249,6.94396206 C13.1097249,6.11375944 13.340261,5.54800396 14.5307606,5.54800396 L16.0491856,5.54734015 L16.0491856,2.98264019 C15.7865799,2.94769483 14.885227,2.86962146 13.8365727,2.86962146 C11.6473301,2.86962146 10.1485155,4.20593738 10.1485155,6.65997856 L10.1485155,8.77466946 L7.67248579,8.77466946 L7.67248579,11.642153 L10.1485155,11.642153 L10.1485155,19 L10.1485155,19 Z" id="Facebook"></path>
                    </g>
                </g>
            </g>
        </g>
    </g>
</svg>