<?xml version="1.0" encoding="UTF-8"?>
<svg width="254px" height="48px" viewBox="0 0 254 48" version="1.1" xmlns="http://www.w3.org/2000/svg" xmlns:xlink="http://www.w3.org/1999/xlink">
    <!-- Generator: Sketch 45.1 (43504) - http://www.bohemiancoding.com/sketch -->
    <title>presenttenseslogo</title>
    <desc>Created with Sketch.</desc>
    <defs></defs>
    <g id="Page-1-Copy" stroke="none" stroke-width="1" fill="none" fill-rule="evenodd">
        <g id="Desktop-HD-Copy-4" transform="translate(-80.000000, -61.000000)">
            <g id="presenttenseslogo" transform="translate(81.000000, 61.000000)">
                <path d="M157.34602,27.7960601 C155.549365,35.1905536 144.574627,36.7895146 143.598697,36.9166834 C136.294553,38.5742419 131.358061,39.9955406 129.321255,41.0284756 C128.826264,41.279073 128.265488,41.3065016 127.782633,41.1045276 C127.744311,41.0883198 127.707905,41.0708653 127.6715,41.052164 C127.285726,40.8545536 126.998951,40.511073 126.875683,40.0934107 C125.520367,35.4978782 123.48867,31.5419302 122.397136,29.4162159 C122.229159,29.0883198 122.086729,28.8115406 121.971764,28.5802678 L113.768973,30.7383977 C113.738315,30.7465016 113.707019,30.7483717 113.675084,30.7539821 L114.333581,32.831073 C114.488146,33.3459821 113.972079,33.8110211 113.458566,33.6196445 L109.680671,31.6316964 C109.27382,31.4795925 109.124365,30.9939821 109.377289,30.6480081 L111.278053,26.7169951 C111.600595,26.2762678 112.301246,26.3922159 112.457088,26.9114886 L113.093231,28.9175146 C113.143688,28.895073 113.194784,28.8738782 113.250351,28.8589172 L121.5713,26.6696185 C122.24321,26.4844756 123.162934,26.4807354 123.668144,27.531125 C123.786942,27.7773588 123.960668,28.1158523 124.180379,28.544112 C125.241895,30.6112289 127.170122,34.367073 128.565676,38.8123717 C128.624436,38.998138 128.833929,39.0922678 129.015319,39.0124756 C131.469194,37.9327873 136.231322,36.588164 143.19504,35.0097743 L143.295955,34.9923198 C143.40134,34.9792289 153.88428,33.6084237 155.405658,27.3466055 C155.915338,25.2495665 155.549365,23.3065016 154.350529,21.7268653 C152.976691,19.9196964 150.589879,18.7458782 147.964833,18.5875406 L147.89266,18.5806834 C147.881802,18.5794367 146.127939,18.3836964 143.435829,19.3106575 L143.418584,19.3162678 L137.547039,21.2219302 C137.028417,21.3902419 136.444009,21.147125 136.256232,20.6465536 C136.062068,20.129151 136.345649,19.5606315 136.877684,19.3879562 L142.780526,17.4716964 C145.747275,16.4524756 147.782804,16.6108133 148.114927,16.6463458 C151.309691,16.847073 154.238119,18.3113847 155.951744,20.5673847 C157.513998,22.6226575 157.996214,25.1217743 157.34602,27.7960601 M119.694169,10.6164237 C120.831689,8.49943668 122.749059,6.90359252 125.093078,6.12250161 C127.453065,5.33517694 130.101105,5.43304707 132.549232,6.39678733 L132.566477,6.40426785 C132.769582,6.48904707 137.219387,8.39470941 138.126976,13.2053068 C138.19851,13.5849432 138.592587,13.8199562 138.970057,13.7052549 L147.992935,10.9599042 C148.056166,10.9405795 148.120036,10.9287354 148.183267,10.9218782 L147.580337,8.77434577 C147.442378,8.25444967 147.973774,7.8056185 148.481539,8.01382629 L152.190455,10.1208393 C152.592195,10.2854107 152.725683,10.7753847 152.461262,11.1132549 L150.430205,14.9819302 C150.093611,15.4120601 149.397431,15.2742938 149.258834,14.7506575 L148.702528,12.7701899 C148.664206,12.7870211 148.627801,12.8057224 148.586285,12.8181899 L138.489118,15.8901899 C137.876607,16.0765795 137.35543,16.0285795 136.937083,15.7468133 C136.660527,15.5604237 136.322017,15.1888912 136.279225,14.4807354 C136.014165,10.0834367 131.974404,8.2775146 131.790459,8.19772239 C127.701518,6.59315097 123.358376,7.9895146 121.459528,11.5209432 C119.00693,16.0840601 120.552578,22.362086 120.568546,22.4250471 C120.700117,22.9468133 120.374382,23.4741899 119.839792,23.6038523 C119.593893,23.663073 119.34544,23.6275406 119.137225,23.5209432 C118.893881,23.3962678 118.704188,23.1749691 118.633292,22.8944497 C118.559842,22.6089432 116.883261,15.8434367 119.694169,10.6164237 M163.467296,24.0265016 L163.462187,23.9872289 C163.423226,23.6936185 162.443464,16.9006834 155.569803,13.1386055 L156.467173,11.595125 C156.867636,10.908164 156.962163,10.1114886 156.734148,9.35283928 C156.509327,8.60478733 155.975376,7.9683198 155.268338,7.60676135 L147.657619,3.83844967 C146.651032,3.33725486 145.461777,3.43325486 144.552272,4.08780032 C143.643406,4.74296915 143.199511,5.82452759 143.393037,6.91107304 L143.602529,8.08738473 L141.038159,8.69580032 C140.012411,6.91044967 137.719487,3.63148863 133.997159,1.70338473 C128.312752,-1.24206981 123.728182,0.0969431728 119.95859,2.22328084 C119.609861,2.4109172 116.196023,4.42816395 114.324001,7.40728084 C111.42176,12.0258782 111.718115,17.2846834 112.668497,21.2636964 C111.654884,20.9887873 110.546744,21.4214107 110.024929,22.3539821 L105.352218,30.3537743 L105.338806,30.3787094 C104.580033,31.7906575 105.138893,33.5417224 106.584266,34.2822938 C106.632807,34.3072289 106.681348,34.3302938 106.731166,34.3527354 L106.76821,34.3689432 L115.725942,37.8523717 C116.530062,38.1908653 117.440844,38.0612029 118.115309,37.510138 C118.53621,37.1660341 118.807657,36.704112 118.903461,36.2029172 L123.419691,46.0360601 C123.691776,46.6120601 124.158025,47.0914367 124.733491,47.3856704 C125.397098,47.7254107 126.160341,47.8076964 126.883986,47.6169432 L146.343819,42.4846834 C146.895653,42.368112 151.157042,41.4143458 155.300911,38.8896704 C161.297641,35.2373068 164.120684,30.0975665 163.467296,24.0265016" id="Fill-1" fill="#1E1621"></path>
                <path d="M-0.66,35 L-0.57,34.49 L0.66,34.28 C1.59,34.16 1.89,33.98 1.92,33.74 L5.07,17.45 C5.1,17.18 4.95,17.09 3.75,16.94 L2.85,16.76 L2.82,16.25 L11.52,16.25 C16.47,16.25 19.11,18.26 19.11,21.23 C19.11,24.71 16.02,26.93 11.01,26.93 C10.11,26.93 8.97,26.84 8.22,26.66 L6.78,33.8 C6.75,34.07 6.9,34.19 8.07,34.31 L9.3,34.46 L9.33,35 L-0.66,35 Z M9.48,26.21 C12.09,26.21 14.04,23.78 14.04,20.69 C14.04,18.53 12.87,17.09 10.92,16.88 L10.05,16.88 L8.28,26.03 C8.64,26.09 9.09,26.21 9.48,26.21 Z M22.4265517,35.06 L18.1665517,34.97 L19.6965517,30.17 L21.3165517,24.02 L20.0265517,23.84 L18.1965517,26.63 L17.8665517,26.33 C19.0965517,23.66 21.1065517,21.32 22.4565517,21.32 C23.1165517,21.32 25.4565517,22.61 25.4565517,23.48 C25.4565517,24.44 24.5865517,26.9 23.6565517,29.48 L23.8065517,29.48 C25.0965517,26.9 26.5665517,23.87 27.2865517,23.15 C28.2165517,21.77 28.9365517,21.26 30.1365517,21.26 C31.4565517,21.26 32.8365517,22.25 32.8365517,23.96 C32.8365517,25.52 31.8165517,26.78 30.4665517,26.78 C28.4565517,26.78 27.8265517,24.5 29.2365517,23.39 L28.3065517,23.09 C27.4965517,23.45 25.5465517,26.96 23.6565517,30.8 L22.4265517,35.06 Z M36.6631034,35.39 C33.8131034,35.39 31.8331034,33.38 31.8331034,30.44 C31.8331034,26.18 35.5531034,21.32 40.4431034,21.32 C42.5731034,21.32 44.1331034,22.49 44.1331034,24.08 C44.1331034,26.3 41.0431034,27.41 36.2731034,28.67 C36.1531034,29.21 36.1231034,29.81 36.1231034,30.38 C36.1231034,32 37.0831034,33.11 38.5831034,33.11 C39.7231034,33.11 41.1631034,32.45 42.6631034,30.26 L43.0231034,30.56 C41.2531034,33.95 39.0931034,35.39 36.6631034,35.39 Z M36.3631034,28.07 C38.6131034,27.32 40.9231034,26.03 40.9231034,23.96 C40.9231034,22.94 40.1731034,22.22 39.5131034,22.22 C39.1531034,22.22 38.8831034,22.37 38.6431034,22.58 C37.7431034,23.48 36.6331034,25.73 36.2731034,28.04 L36.3631034,28.07 Z M48.139655,35.42 C45.619655,35.42 43.339655,34.46 43.339655,32.39 C43.339655,31.07 44.119655,30.05 45.409655,30.05 C46.399655,30.05 47.149655,30.83 47.179655,31.85 C47.209655,32.45 46.969655,32.84 46.369655,33.32 C46.549655,33.68 47.629655,34.76 49.069655,34.79 C50.059655,34.67 50.869655,33.74 50.869655,32.75 C50.869655,31.76 49.249655,30.62 47.839655,29.42 C46.189655,28.01 45.199655,26.99 45.199655,25.55 C45.199655,23.09 47.659655,21.32 50.569655,21.32 C52.849655,21.32 55.189655,22.31 55.189655,24.05 C55.189655,25.37 54.439655,26.3 53.269655,26.3 C52.099655,26.3 51.289655,25.43 51.289655,24.38 C51.289655,23.84 51.649655,23.36 52.069655,23.06 C51.769655,22.76 51.289655,21.92 49.969655,21.89 C49.069655,22.07 48.259655,23.06 48.259655,23.87 C48.259655,24.92 50.089655,26.15 51.169655,27.05 C52.579655,28.34 53.989655,29.6 53.989655,31.13 C53.989655,33.53 51.379655,35.42 48.139655,35.42 Z M60.0062067,35.39 C57.1562067,35.39 55.1762067,33.38 55.1762067,30.44 C55.1762067,26.18 58.8962067,21.32 63.7862067,21.32 C65.9162067,21.32 67.4762067,22.49 67.4762067,24.08 C67.4762067,26.3 64.3862067,27.41 59.6162067,28.67 C59.4962067,29.21 59.4662067,29.81 59.4662067,30.38 C59.4662067,32 60.4262067,33.11 61.9262067,33.11 C63.0662067,33.11 64.5062067,32.45 66.0062067,30.26 L66.3662067,30.56 C64.5962067,33.95 62.4362067,35.39 60.0062067,35.39 Z M59.7062067,28.07 C61.9562067,27.32 64.2662067,26.03 64.2662067,23.96 C64.2662067,22.94 63.5162067,22.22 62.8562067,22.22 C62.4962067,22.22 62.2262067,22.37 61.9862067,22.58 C61.0862067,23.48 59.9762067,25.73 59.6162067,28.04 L59.7062067,28.07 Z M78.8627584,35.42 C78.2027584,35.42 76.2227584,34.01 76.2227584,33.17 C76.2227584,32.39 76.8227584,31.1 77.8427584,28.37 C78.4127584,26.9 78.9227584,25.7 78.9227584,25.19 C78.9227584,24.86 78.0227584,24.41 77.4527584,24.41 C76.7027584,24.41 75.2327584,26.48 72.8327584,31.61 L71.7527584,35.06 L67.4627584,35 L69.0227584,30.17 L70.6427584,24.02 L69.3527584,23.84 L67.5227584,26.63 L67.1927584,26.33 C68.4227584,23.66 70.4327584,21.32 71.7827584,21.32 C72.4427584,21.32 74.7827584,22.61 74.7827584,23.48 C74.7827584,24.44 73.8527584,27.47 72.8927584,29.84 L73.1027584,29.87 C74.5427584,26.96 76.3127584,23.72 77.3627584,22.73 C78.0827584,22.01 79.1627584,21.32 79.9727584,21.32 C82.0427584,21.32 83.2127584,22.64 83.2127584,23.66 C83.2127584,24.65 82.6127584,26.63 81.8027584,28.7 C81.2927584,29.93 80.2127584,32.75 80.2127584,32.75 L81.4727584,32.93 L83.5727584,30.35 L83.8727584,30.62 C82.4327584,33.29 80.2427584,35.42 78.8627584,35.42 Z M87.8493101,35.42 C89.5293101,35.42 91.2093101,33.29 92.5293101,30.62 L92.2293101,30.35 L90.3393101,32.9 L88.2693101,32.72 L90.9993101,23.69 L94.2693101,23.69 L94.5693101,21.89 L91.5093101,21.86 L92.6193101,17.9 L88.6893101,17.9 L87.4593101,21.8 L84.9993101,22.13 L84.4293101,23.72 L86.8893101,23.84 C86.4393101,25.19 84.3393101,32.66 84.3093101,33.14 C84.2193101,33.98 86.4393101,35.42 87.8493101,35.42 Z" id="Present" fill="#1F1622"></path>
                <path d="M176.11,35 L176.2,34.49 L177.52,34.28 C178.42,34.19 178.78,33.98 178.81,33.74 L182.02,16.88 L181.69,16.88 C179.26,17 176.89,19.64 175.57,21.8 L175.06,22.73 L174.1,22.73 L176.05,16.25 L193.27,16.25 L192.4,22.7 L191.59,22.7 L191.38,21.74 C190.78,19.31 189.55,16.94 187.27,16.88 L186.88,16.88 L183.64,33.8 C183.61,34.07 183.79,34.19 184.96,34.31 L185.98,34.49 L186.04,35 L176.11,35 Z M194.096552,35.39 C191.246552,35.39 189.266552,33.38 189.266552,30.44 C189.266552,26.18 192.986552,21.32 197.876552,21.32 C200.006552,21.32 201.566552,22.49 201.566552,24.08 C201.566552,26.3 198.476552,27.41 193.706552,28.67 C193.586552,29.21 193.556552,29.81 193.556552,30.38 C193.556552,32 194.516552,33.11 196.016552,33.11 C197.156552,33.11 198.596552,32.45 200.096552,30.26 L200.456552,30.56 C198.686552,33.95 196.526552,35.39 194.096552,35.39 Z M193.796552,28.07 C196.046552,27.32 198.356552,26.03 198.356552,23.96 C198.356552,22.94 197.606552,22.22 196.946552,22.22 C196.586552,22.22 196.316552,22.37 196.076552,22.58 C195.176552,23.48 194.066552,25.73 193.706552,28.04 L193.796552,28.07 Z M212.953103,35.42 C212.293103,35.42 210.313103,34.01 210.313103,33.17 C210.313103,32.39 210.913103,31.1 211.933103,28.37 C212.503103,26.9 213.013103,25.7 213.013103,25.19 C213.013103,24.86 212.113103,24.41 211.543103,24.41 C210.793103,24.41 209.323103,26.48 206.923103,31.61 L205.843103,35.06 L201.553103,35 L203.113103,30.17 L204.733103,24.02 L203.443103,23.84 L201.613103,26.63 L201.283103,26.33 C202.513103,23.66 204.523103,21.32 205.873103,21.32 C206.533103,21.32 208.873103,22.61 208.873103,23.48 C208.873103,24.44 207.943103,27.47 206.983103,29.84 L207.193103,29.87 C208.633103,26.96 210.403103,23.72 211.453103,22.73 C212.173103,22.01 213.253103,21.32 214.063103,21.32 C216.133103,21.32 217.303103,22.64 217.303103,23.66 C217.303103,24.65 216.703103,26.63 215.893103,28.7 C215.383103,29.93 214.303103,32.75 214.303103,32.75 L215.563103,32.93 L217.663103,30.35 L217.963103,30.62 C216.523103,33.29 214.333103,35.42 212.953103,35.42 Z M222.299655,35.42 C219.779655,35.42 217.499655,34.46 217.499655,32.39 C217.499655,31.07 218.279655,30.05 219.569655,30.05 C220.559655,30.05 221.309655,30.83 221.339655,31.85 C221.369655,32.45 221.129655,32.84 220.529655,33.32 C220.709655,33.68 221.789655,34.76 223.229655,34.79 C224.219655,34.67 225.029655,33.74 225.029655,32.75 C225.029655,31.76 223.409655,30.62 221.999655,29.42 C220.349655,28.01 219.359655,26.99 219.359655,25.55 C219.359655,23.09 221.819655,21.32 224.729655,21.32 C227.009655,21.32 229.349655,22.31 229.349655,24.05 C229.349655,25.37 228.599655,26.3 227.429655,26.3 C226.259655,26.3 225.449655,25.43 225.449655,24.38 C225.449655,23.84 225.809655,23.36 226.229655,23.06 C225.929655,22.76 225.449655,21.92 224.129655,21.89 C223.229655,22.07 222.419655,23.06 222.419655,23.87 C222.419655,24.92 224.249655,26.15 225.329655,27.05 C226.739655,28.34 228.149655,29.6 228.149655,31.13 C228.149655,33.53 225.539655,35.42 222.299655,35.42 Z M234.166207,35.39 C231.316207,35.39 229.336207,33.38 229.336207,30.44 C229.336207,26.18 233.056207,21.32 237.946207,21.32 C240.076207,21.32 241.636207,22.49 241.636207,24.08 C241.636207,26.3 238.546207,27.41 233.776207,28.67 C233.656207,29.21 233.626207,29.81 233.626207,30.38 C233.626207,32 234.586207,33.11 236.086207,33.11 C237.226207,33.11 238.666207,32.45 240.166207,30.26 L240.526207,30.56 C238.756207,33.95 236.596207,35.39 234.166207,35.39 Z M233.866207,28.07 C236.116207,27.32 238.426207,26.03 238.426207,23.96 C238.426207,22.94 237.676207,22.22 237.016207,22.22 C236.656207,22.22 236.386207,22.37 236.146207,22.58 C235.246207,23.48 234.136207,25.73 233.776207,28.04 L233.866207,28.07 Z M245.642758,35.42 C243.122758,35.42 240.842758,34.46 240.842758,32.39 C240.842758,31.07 241.622758,30.05 242.912758,30.05 C243.902758,30.05 244.652758,30.83 244.682758,31.85 C244.712758,32.45 244.472758,32.84 243.872758,33.32 C244.052758,33.68 245.132758,34.76 246.572758,34.79 C247.562758,34.67 248.372758,33.74 248.372758,32.75 C248.372758,31.76 246.752758,30.62 245.342758,29.42 C243.692758,28.01 242.702758,26.99 242.702758,25.55 C242.702758,23.09 245.162758,21.32 248.072758,21.32 C250.352758,21.32 252.692758,22.31 252.692758,24.05 C252.692758,25.37 251.942758,26.3 250.772758,26.3 C249.602758,26.3 248.792758,25.43 248.792758,24.38 C248.792758,23.84 249.152758,23.36 249.572758,23.06 C249.272758,22.76 248.792758,21.92 247.472758,21.89 C246.572758,22.07 245.762758,23.06 245.762758,23.87 C245.762758,24.92 247.592758,26.15 248.672758,27.05 C250.082758,28.34 251.492758,29.6 251.492758,31.13 C251.492758,33.53 248.882758,35.42 245.642758,35.42 Z" id="Tenses" fill="#1F1622"></path>
            </g>
        </g>
    </g>
</svg>