<?xml version="1.0" encoding="UTF-8"?>
<svg width="14px" height="14px" viewBox="0 0 14 14" version="1.1" xmlns="http://www.w3.org/2000/svg" xmlns:xlink="http://www.w3.org/1999/xlink">
    <!-- Generator: Sketch 45.1 (43504) - http://www.bohemiancoding.com/sketch -->
    <title>share</title>
    <desc>Created with Sketch.</desc>
    <defs></defs>
    <g id="Page-1-Copy" stroke="none" stroke-width="1" fill="none" fill-rule="evenodd">
        <g id="Desktop-HD-Copy-4" transform="translate(-81.000000, -812.000000)" fill-rule="nonzero" fill="#B16161">
            <g id="Group-5" transform="translate(81.000000, 789.000000)">
                <g id="Group" transform="translate(0.000000, 22.000000)">
                    <path d="M11.6901513,8.84 C11.3827282,8.84 11.1334775,9.09074 11.1334775,9.4 L11.1334775,13.32 C11.1334775,13.6294 10.8843659,13.88 10.5768036,13.88 L1.67002162,13.88 C1.36245931,13.88 1.11334775,13.6294 1.11334775,13.32 L1.11334775,4.36 C1.11334775,4.0506 1.36245931,3.8 1.67002162,3.8 L5.56673874,3.8 C5.87416188,3.8 6.12341261,3.54926 6.12341261,3.24 C6.12341261,2.93074 5.87416188,2.68 5.56673874,2.68 L1.67002162,2.68 C0.747752181,2.68 0,3.43222 0,4.36 L0,13.32 C0,14.24778 0.747752181,15 1.67002162,15 L10.5768036,15 C11.499073,15 12.2468252,14.24778 12.2468252,13.32 L12.2468252,9.4 C12.2468252,9.09074 11.9975745,8.84 11.6901513,8.84 Z M14,1.56 L14,4.92 C14,5.22926 13.7507493,5.48 13.4433261,5.48 C13.135903,5.48 12.8866523,5.22926 12.8866523,4.92 L12.8866523,2.91184 L8.32596237,7.49964 C8.1087204,7.71832 7.75620667,7.71832 7.53896469,7.49964 C7.32158354,7.2811 7.32158354,6.92648 7.53896469,6.7078 L12.0993762,2.12 L10.1032829,2.12 C9.79585974,2.12 9.54660901,1.86926 9.54660901,1.56 C9.54660901,1.25074 9.79585974,1 10.1032829,1 L13.4433261,1 C13.7507493,1 14,1.25074 14,1.56 Z" id="share"></path>
                </g>
            </g>
        </g>
    </g>
</svg>