<?xml version="1.0" encoding="UTF-8"?>
<svg width="22px" height="18px" viewBox="0 0 22 18" version="1.1" xmlns="http://www.w3.org/2000/svg" xmlns:xlink="http://www.w3.org/1999/xlink">
    <!-- Generator: Sketch 45.1 (43504) - http://www.bohemiancoding.com/sketch -->
    <title>Twitter</title>
    <desc>Created with Sketch.</desc>
    <defs></defs>
    <g id="Page-1-Copy" stroke="none" stroke-width="1" fill="none" fill-rule="evenodd">
        <g id="Desktop-HD-Copy-4" transform="translate(-1241.000000, -848.000000)" fill-rule="nonzero" fill="#F98787">
            <g id="Group-8" transform="translate(1011.000000, 840.000000)">
                <g id="Group-2" transform="translate(230.000000, 8.000000)">
                    <g id="twitter">
                        <path d="M22,2.34782609 L19.6428571,2.73913043 L21.2142857,0.782608696 L18.4642857,1.56521739 C14.9285714,-2.34782609 9.42857143,1.95652174 11,5.47826087 C4.71428571,5.47826087 1.57142857,0.782608696 1.57142857,0.782608696 C1.57142857,0.782608696 -0.785714286,4.30434783 3.14285714,7.04347826 L0.785714286,6.26086957 C0.785714286,8.60869565 2.35714286,10.173913 5.10714286,10.9565217 L2.35714286,10.9565217 C3.92857143,14.0869565 6.67857143,14.0869565 6.67857143,14.0869565 C6.67857143,14.0869565 4.32142857,16.0434783 0,16.0434783 C12.9642857,22.3043478 20.8214286,10.5652174 19.6428571,4.30434783 L22,2.34782609 Z" id="Twitter"></path>
                    </g>
                </g>
            </g>
        </g>
    </g>
</svg>