<?xml version="1.0" encoding="UTF-8"?>
<svg width="19px" height="13px" viewBox="0 0 19 13" version="1.1" xmlns="http://www.w3.org/2000/svg" xmlns:xlink="http://www.w3.org/1999/xlink">
    <!-- Generator: Sketch 45.1 (43504) - http://www.bohemiancoding.com/sketch -->
    <title>Youtube</title>
    <desc>Created with Sketch.</desc>
    <defs></defs>
    <g id="Page-1-Copy" stroke="none" stroke-width="1" fill="none" fill-rule="evenodd">
        <g id="Desktop-HD-Copy-4" transform="translate(-1334.000000, -851.000000)" fill-rule="nonzero" fill="#F98787">
            <g id="Group-8" transform="translate(1011.000000, 840.000000)">
                <g id="Group-2" transform="translate(230.000000, 8.000000)">
                    <g id="youtube-black" transform="translate(93.000000, 3.000000)">
                        <path d="M7.53825,8.89732082 L7.53765625,3.70413665 L12.6712188,6.30968153 L7.53825,8.89732082 Z M18.81,2.80423879 C18.81,2.80423879 18.6241563,1.53063491 18.05475,0.969787 C17.3321562,0.233349618 16.5222812,0.229883971 16.1511875,0.187141882 C13.492375,0 9.50415625,0 9.50415625,0 L9.49584375,0 C9.49584375,0 5.507625,0 2.8488125,0.187141882 C2.477125,0.229883971 1.66784375,0.233349618 0.94465625,0.969787 C0.37525,1.53063491 0.19,2.80423879 0.19,2.80423879 C0.19,2.80423879 0,4.30021762 0,5.79561909 L0,7.19802735 C0,8.69400618 0.19,10.1894076 0.19,10.1894076 C0.19,10.1894076 0.37525,11.4630115 0.94465625,12.0238591 C1.66784375,12.7602968 2.61725,12.7371928 3.04,12.8140136 C4.56,12.9561024 9.5,13 9.5,13 C9.5,13 13.492375,12.9942242 16.1511875,12.8070823 C16.5222812,12.7637625 17.3321562,12.7602968 18.05475,12.0238591 C18.6241563,11.4630115 18.81,10.1894076 18.81,10.1894076 C18.81,10.1894076 19,8.69400618 19,7.19802735 L19,5.79561909 C19,4.30021762 18.81,2.80423879 18.81,2.80423879 L18.81,2.80423879 Z" id="Youtube"></path>
                    </g>
                </g>
            </g>
        </g>
    </g>
</svg>